<mxfile host="app.diagrams.net" modified="2020-11-28T09:14:07.818Z" agent="5.0 (X11)" etag="zq77UEuyvHO0nAr3xmOb" version="13.10.4" type="github">
  <diagram id="mQAeHGsvcNYUFSRuH0Bx" name="Page-1">
    <mxGraphModel dx="1350" dy="804" grid="1" gridSize="10" guides="1" tooltips="1" connect="1" arrows="1" fold="1" page="1" pageScale="1" pageWidth="827" pageHeight="1169" math="0" shadow="0">
      <root>
        <mxCell id="0" />
        <mxCell id="1" parent="0" />
        <mxCell id="bg-VzZmrl5f9JLL7aAXu-2" value="&lt;font style=&quot;font-size: 27px&quot; color=&quot;#050505&quot;&gt;&lt;b&gt;X86_64 Host&lt;br&gt;&lt;/b&gt;&lt;/font&gt;" style="shape=ext;double=1;rounded=1;whiteSpace=wrap;html=1;fillColor=#d5e8d4;strokeColor=#82b366;shadow=0;sketch=1;" vertex="1" parent="1">
          <mxGeometry x="100" y="545" width="670" height="80" as="geometry" />
        </mxCell>
        <mxCell id="bg-VzZmrl5f9JLL7aAXu-3" value="&lt;b&gt;&lt;font style=&quot;font-size: 18px&quot;&gt;Qemu&amp;nbsp; AArch64&amp;nbsp; Virtualization&lt;/font&gt;&lt;/b&gt;" style="rounded=1;whiteSpace=wrap;html=1;strokeWidth=2;fillWeight=4;hachureGap=8;hachureAngle=45;fillColor=#ffe6cc;sketch=1;shadow=0;strokeColor=#d79b00;" vertex="1" parent="1">
          <mxGeometry x="215" y="460" width="545" height="70" as="geometry" />
        </mxCell>
        <mxCell id="bg-VzZmrl5f9JLL7aAXu-4" value="&lt;b&gt;&lt;font style=&quot;font-size: 14px&quot;&gt;Qemu AArch64 KVM加速&lt;/font&gt;&lt;/b&gt;" style="rounded=1;whiteSpace=wrap;html=1;strokeWidth=2;fillWeight=4;hachureGap=8;hachureAngle=45;fillColor=#b1ddf0;sketch=1;shadow=0;strokeColor=#10739e;" vertex="1" parent="1">
          <mxGeometry x="340" y="360" width="190" height="110" as="geometry" />
        </mxCell>
        <mxCell id="bg-VzZmrl5f9JLL7aAXu-7" value="&lt;font color=&quot;#030303&quot;&gt;&lt;b&gt;&lt;font style=&quot;font-size: 14px&quot;&gt;Qemu AArch64 KVM加速&lt;/font&gt;&lt;/b&gt;&lt;/font&gt;" style="rounded=1;whiteSpace=wrap;html=1;strokeWidth=2;fillWeight=4;hachureGap=8;hachureAngle=45;fillColor=#fad9d5;sketch=1;shadow=0;strokeColor=#ae4132;" vertex="1" parent="1">
          <mxGeometry x="550" y="360" width="190" height="110" as="geometry" />
        </mxCell>
        <mxCell id="bg-VzZmrl5f9JLL7aAXu-8" value="X86 APP" style="rounded=1;whiteSpace=wrap;html=1;strokeWidth=2;fillWeight=4;hachureGap=8;hachureAngle=45;fillColor=#d5e8d4;sketch=1;shadow=0;strokeColor=#82b366;" vertex="1" parent="1">
          <mxGeometry x="110" y="290" width="90" height="240" as="geometry" />
        </mxCell>
        <mxCell id="bg-VzZmrl5f9JLL7aAXu-10" value="AArch64 APP" style="rounded=1;whiteSpace=wrap;html=1;strokeWidth=2;fillWeight=4;hachureGap=8;hachureAngle=45;fillColor=#ffe6cc;sketch=1;shadow=0;strokeColor=#d79b00;" vertex="1" parent="1">
          <mxGeometry x="220" y="290" width="90" height="160" as="geometry" />
        </mxCell>
        <mxCell id="bg-VzZmrl5f9JLL7aAXu-11" value="&lt;div&gt;AArch64&lt;/div&gt;&lt;div&gt;APP&lt;/div&gt;" style="rounded=1;whiteSpace=wrap;html=1;strokeWidth=2;fillWeight=4;hachureGap=8;hachureAngle=45;fillColor=#b1ddf0;sketch=1;shadow=0;strokeColor=#10739e;" vertex="1" parent="1">
          <mxGeometry x="350" y="290" width="70" height="60" as="geometry" />
        </mxCell>
        <mxCell id="bg-VzZmrl5f9JLL7aAXu-12" value="&lt;div&gt;AArch64&lt;/div&gt;&lt;div&gt;APP&lt;/div&gt;" style="rounded=1;whiteSpace=wrap;html=1;strokeWidth=2;fillWeight=4;hachureGap=8;hachureAngle=45;fillColor=#b1ddf0;sketch=1;shadow=0;strokeColor=#10739e;" vertex="1" parent="1">
          <mxGeometry x="450" y="290" width="70" height="60" as="geometry" />
        </mxCell>
        <mxCell id="bg-VzZmrl5f9JLL7aAXu-13" value="&lt;div&gt;AArch64&lt;/div&gt;&lt;div&gt;APP&lt;/div&gt;" style="rounded=1;whiteSpace=wrap;html=1;strokeWidth=2;fillWeight=4;hachureGap=8;hachureAngle=45;fillColor=#fad9d5;sketch=1;shadow=0;strokeColor=#ae4132;" vertex="1" parent="1">
          <mxGeometry x="560" y="290" width="70" height="60" as="geometry" />
        </mxCell>
        <mxCell id="bg-VzZmrl5f9JLL7aAXu-14" value="&lt;div&gt;AArch64&lt;/div&gt;&lt;div&gt;APP&lt;/div&gt;" style="rounded=1;whiteSpace=wrap;html=1;strokeWidth=2;fillWeight=4;hachureGap=8;hachureAngle=45;fillColor=#fad9d5;sketch=1;shadow=0;strokeColor=#ae4132;" vertex="1" parent="1">
          <mxGeometry x="660" y="290" width="70" height="60" as="geometry" />
        </mxCell>
        <mxCell id="bg-VzZmrl5f9JLL7aAXu-16" value="&lt;font style=&quot;font-size: 18px;&quot; color=&quot;#FF0000&quot;&gt;&lt;b style=&quot;font-size: 18px;&quot;&gt;1&lt;/b&gt;&lt;/font&gt;" style="text;html=1;resizable=0;autosize=1;align=center;verticalAlign=middle;points=[];fillColor=none;strokeColor=none;rounded=0;shadow=0;sketch=1;fontSize=18;" vertex="1" parent="1">
          <mxGeometry x="125" y="560" width="30" height="30" as="geometry" />
        </mxCell>
        <mxCell id="bg-VzZmrl5f9JLL7aAXu-19" value="&lt;font style=&quot;font-size: 18px;&quot; color=&quot;#FF0000&quot;&gt;&lt;b style=&quot;font-size: 18px;&quot;&gt;2&lt;/b&gt;&lt;/font&gt;" style="text;html=1;resizable=0;autosize=1;align=center;verticalAlign=middle;points=[];fillColor=none;strokeColor=none;rounded=0;shadow=0;sketch=1;fontSize=18;" vertex="1" parent="1">
          <mxGeometry x="240" y="470" width="30" height="30" as="geometry" />
        </mxCell>
        <mxCell id="bg-VzZmrl5f9JLL7aAXu-20" value="3" style="text;html=1;resizable=0;autosize=1;align=center;verticalAlign=middle;points=[];fillColor=none;strokeColor=none;rounded=0;shadow=0;sketch=1;fontSize=18;fontStyle=1;fontColor=#FF0000;" vertex="1" parent="1">
          <mxGeometry x="355" y="365" width="30" height="30" as="geometry" />
        </mxCell>
        <mxCell id="bg-VzZmrl5f9JLL7aAXu-21" value="4" style="text;html=1;resizable=0;autosize=1;align=center;verticalAlign=middle;points=[];fillColor=none;strokeColor=none;rounded=0;shadow=0;sketch=1;fontSize=20;fontStyle=1;fontColor=#FF0000;" vertex="1" parent="1">
          <mxGeometry x="565" y="365" width="30" height="30" as="geometry" />
        </mxCell>
      </root>
    </mxGraphModel>
  </diagram>
</mxfile>
